<svg width="600" height="600" viewBox="0 0 600 600" fill="none" xmlns="http://www.w3.org/2000/svg">
<rect width="600" height="600" fill="#0BA57F"/>
<rect x="241.255" y="275.109" width="49.7834" height="169.264" transform="rotate(90 241.255 275.109)" fill="white"/>
<rect x="119.784" y="324.892" width="49.7834" height="252.9" transform="rotate(-180 119.784 324.892)" fill="white"/>
<path d="M70.2391 120.887L70.3775 71.1038C70.3775 71.1038 100.476 68.7977 119.532 71.1041C139.887 73.5675 151.221 76.8341 170.408 84.048C188.343 90.7908 198.653 94.9105 214.301 105.953C225.793 114.062 241.236 129.849 241.236 129.849L241.236 185.607C241.236 185.607 221.79 170.13 208.316 161.71C199.592 156.259 194.819 152.844 185.372 148.767C169.934 142.104 160.235 140.208 143.474 138.81C134.157 138.032 119.533 138.81 119.533 138.81L70.2391 120.887Z" fill="white"/>
<rect x="357.054" y="324.892" width="49.7834" height="169.264" transform="rotate(-90 357.054 324.892)" fill="white"/>
<rect x="478.525" y="275.109" width="49.7834" height="252.9" fill="white"/>
<path d="M528.069 479.114L527.931 528.898C527.931 528.898 497.833 531.204 478.776 528.897C458.422 526.434 447.088 523.167 427.9 515.953C409.966 509.211 399.656 505.091 384.007 494.048C372.516 485.94 357.073 470.152 357.073 470.152L357.073 414.395C357.073 414.395 376.519 429.872 389.992 438.291C398.716 443.742 403.489 447.158 412.937 451.235C428.375 457.897 438.073 459.794 454.834 461.192C464.152 461.969 478.776 461.192 478.776 461.192L528.069 479.114Z" fill="white"/>
<rect x="275.107" y="70.001" width="49.7834" height="459.999" fill="white"/>
<rect x="275.109" y="359.045" width="49.7834" height="169.264" fill="white"/>
<rect x="324.893" y="480.517" width="49.7834" height="252.9" transform="rotate(90 324.893 480.517)" fill="white"/>
<path d="M120.887 530.062L71.1038 529.924C71.1038 529.924 68.7977 499.825 71.1041 480.769C73.5675 460.414 76.8341 449.08 84.048 429.893C90.7908 411.958 94.9105 401.648 105.953 386C114.062 374.508 129.849 359.065 129.849 359.065L185.607 359.065C185.607 359.065 170.13 378.511 161.71 391.985C156.259 400.709 152.844 405.482 148.767 414.929C142.104 430.367 140.208 440.066 138.81 456.827C138.032 466.144 138.81 480.768 138.81 480.768L120.887 530.062Z" fill="white"/>
<rect x="324.892" y="241.256" width="49.7834" height="169.264" transform="rotate(-180 324.892 241.256)" fill="white"/>
<rect x="275.107" y="119.784" width="49.7834" height="252.9" transform="rotate(-90 275.107 119.784)" fill="white"/>
<path d="M479.113 70.2391L528.896 70.3775C528.896 70.3775 531.202 100.476 528.896 119.532C526.433 139.887 523.166 151.221 515.952 170.408C509.209 188.343 505.089 198.653 494.047 214.301C485.938 225.793 470.151 241.236 470.151 241.236L414.393 241.236C414.393 241.236 429.87 221.79 438.29 208.316C443.741 199.592 447.156 194.819 451.233 185.372C457.896 169.934 459.792 160.235 461.19 143.474C461.968 134.157 461.19 119.533 461.19 119.533L479.113 70.2391Z" fill="white"/>
</svg>
